<?xml version="1.0" encoding="UTF-8" standalone="no"?>
<!-- Created with Inkscape (http://www.inkscape.org/) -->

<svg
   xmlns:dc="http://purl.org/dc/elements/1.1/"
   xmlns:cc="http://creativecommons.org/ns#"
   xmlns:rdf="http://www.w3.org/1999/02/22-rdf-syntax-ns#"
   xmlns:svg="http://www.w3.org/2000/svg"
   xmlns="http://www.w3.org/2000/svg"
   version="1.1"
   width="128"
   height="128"
   id="svg2987">
  <metadata
     id="metadata3202">
    <rdf:RDF>
      <cc:Work
         rdf:about="">
        <dc:format>image/svg+xml</dc:format>
        <dc:type
           rdf:resource="http://purl.org/dc/dcmitype/StillImage" />
        <dc:title></dc:title>
      </cc:Work>
    </rdf:RDF>
  </metadata>
  <defs
     id="defs2989">
    <filter
       x="0"
       y="0"
       width="1"
       height="1"
       color-interpolation-filters="sRGB"
       id="filter3781">
      <feColorMatrix
         result="fbSourceGraphic"
         values="1"
         type="saturate"
         id="feColorMatrix3783" />
      <feColorMatrix
         values="-1 0 0 0 1 0 -1 0 0 1 0 0 -1 0 1 0 0 0 1 0 "
         in="fbSourceGraphic"
         id="feColorMatrix3785" />
    </filter>
  </defs>
  <g
     transform="matrix(1.50392,-0.40297415,0.40297415,1.50392,-410.4235,-1415.541)"
     id="layer1"
     style="fill:#299da2;fill-opacity:0.94117647">
    <path
       d="M 38.9375,6.75 C 36.204925,6.7770255 33.417493,7.1351271 30.65625,7.875 12.984292,12.610187 2.5148132,30.796792 7.25,48.46875 11.985187,66.140708 30.140542,76.610187 47.8125,71.875 c 1.554025,-0.4164 3.062482,-0.916487 4.5,-1.53125 0.688977,0.872829 0.708409,1.864107 -0.25,3.03125 l 2.875,3.3125 2.3125,0.09375 7,0.21875 7,0.3125 4.875,0.1875 -0.46875,4.5 -0.71875,7.0625 7.375,0.03125 0.78125,0 -0.03125,0.8125 -0.1875,7.375 L 90.03125,97.25 94.46875,97.21875 94.25,101.75 94.03125,107.65625 99.6875,107.5 l 4.40625,-0.125 -0.25,4.5625 -0.125,2.34375 2.5,0.1875 4.125,0.3125 -0.125,3.90625 -0.0312,2.21875 2.21875,0.0625 6.9375,0.21875 2.5,0.0625 0.0625,-12.03125 L 69.625,53.125 C 72.526324,46.483378 73.271053,38.855171 71.25,31.3125 67.254686,16.401786 53.693404,6.6040622 38.9375,6.75 z M 28.25,16.8125 c 4.480882,0.18834 8.528441,3.28483 9.75,7.84375 1.503457,5.610978 -1.826522,11.371543 -7.4375,12.875 -5.610978,1.503457 -11.434043,-1.826522 -12.9375,-7.4375 -1.503457,-5.610978 1.857772,-11.402793 7.46875,-12.90625 1.052058,-0.281898 2.1222,-0.418463 3.15625,-0.375 z"
       transform="matrix(0.62038719,0.16623225,-0.16623225,0.62038719,19.312921,946.40912)"
       id="path3841"
       style="fill:#299da2;fill-opacity:0.94117647;stroke:none" />
    <g
       transform="translate(-25.616071,-62.843772)"
       id="layer1-8"
       style="fill:#299da2;fill-opacity:0.94117647" />
  </g>
</svg>
